<?xml version="1.0"?>
<svg xmlns="http://www.w3.org/2000/svg" height="512px" viewBox="0 -55 447.24502 447" width="512px"><path d="m247.246094 104.257812h-48v128h-22.183594l46.183594 51.960938 46.183594-51.960938h-22.183594zm0 0" fill="#006DF0"/><path d="m351.246094 144.257812c-.527344 0-1.089844 0-1.601563 0-2.535156.25-5.039062-.722656-6.738281-2.617187-1.703125-1.894531-2.398438-4.488281-1.878906-6.980469 8.421875-40.984375-6.707032-83.242187-39.21875-109.574218-32.515625-26.332032-76.992188-32.347657-115.332032-15.59375-38.339843 16.75-64.144531 53.476562-66.910156 95.222656-.277344 4.214844-3.777344 7.488281-8 7.480468-60.167968.234376-109.402344 47.964844-111.4999998 108.09375-2.0937502 60.132813 43.6914058 111.175782 103.6992188 115.601563 2.617187.238281 5.007813.304687 7.480469.304687h240c53.019531 0 96-42.980468 96-96 0-53.019531-42.980469-96-96-96zm-128 164.039063-81.816406-92.039063h41.816406v-128h80v128h41.816406zm0 0" fill="#006DF0"/></svg>
