<svg fill="#D64550" xmlns="http://www.w3.org/2000/svg" xmlns:xlink="http://www.w3.org/1999/xlink" version="1.0" x="0px" y="0px" viewBox="0 0 25.88 25.881" style="enable-background:new 0 0 25.88 25.881;" xml:space="preserve"><g><path d="M16.407,3.986H14.63c0,0-0.314-3.359-0.443-3.539C13.999,0.181,13.458,0,12.948,0c-0.511,0-1.124,0.181-1.313,0.447   c-0.128,0.181-0.37,3.539-0.37,3.539H9.493c-0.188,0-0.361,0.103-0.449,0.268c-0.088,0.164-0.078,0.364,0.027,0.52   c1.357,2.007,3.475,3.959,3.564,4.03c0.091,0.072,0.203,0.109,0.315,0.109c0.111,0,0.222-0.036,0.315-0.109   c0.091-0.071,2.207-2.023,3.564-4.031c0.104-0.155,0.114-0.354,0.026-0.519C16.766,4.089,16.594,3.986,16.407,3.986z"></path><path d="M13.245,17.078c-0.091-0.072-0.203-0.109-0.315-0.109c-0.111,0-0.222,0.036-0.315,0.109   c-0.091,0.071-2.207,2.023-3.565,4.03c-0.104,0.155-0.114,0.354-0.026,0.519c0.089,0.165,0.261,0.268,0.448,0.268h1.777   c0,0,0.314,3.359,0.443,3.539c0.188,0.266,0.729,0.447,1.239,0.447c0.511,0,1.124-0.181,1.313-0.447   c0.128-0.181,0.37-3.539,0.37-3.539h1.772c0.188,0,0.361-0.103,0.449-0.268c0.088-0.164,0.079-0.364-0.026-0.519   C15.452,19.101,13.334,17.149,13.245,17.078z"></path><path d="M25.433,11.637c-0.181-0.128-3.539-0.37-3.539-0.37V9.495c0-0.188-0.103-0.361-0.268-0.449   c-0.164-0.088-0.364-0.079-0.519,0.026c-2.007,1.357-3.959,3.475-4.03,3.564c-0.072,0.091-0.109,0.203-0.109,0.315   c0,0.111,0.036,0.222,0.109,0.315c0.071,0.091,2.023,2.207,4.03,3.565c0.155,0.104,0.354,0.114,0.519,0.026   c0.165-0.089,0.268-0.261,0.268-0.448v-1.777c0,0,3.359-0.314,3.539-0.443c0.266-0.188,0.447-0.729,0.447-1.239   C25.88,12.439,25.699,11.826,25.433,11.637z"></path><path d="M4.773,9.051C4.618,8.947,4.419,8.937,4.254,9.025C4.089,9.114,3.986,9.286,3.986,9.473v1.777c0,0-3.359,0.314-3.539,0.443   C0.181,11.881,0,12.422,0,12.932c0,0.511,0.181,1.124,0.447,1.313c0.181,0.128,3.539,0.37,3.539,0.37v1.772   c0,0.188,0.103,0.361,0.268,0.449c0.164,0.088,0.364,0.079,0.519-0.026c2.007-1.357,3.959-3.475,4.03-3.564   c0.072-0.091,0.109-0.203,0.109-0.315c0-0.111-0.036-0.222-0.109-0.315C8.732,12.525,6.78,10.409,4.773,9.051z"></path><circle cx="12.94" cy="12.941" r="2"></circle></g></svg>