<svg fill="#7B287D" xmlns="http://www.w3.org/2000/svg" data-name="Layer 1" viewBox="0 0 100 100" x="0px" y="0px"><title>123all</title><path d="M30.75,38.61a3.5,3.5,0,1,0,4.95-5,12.85,12.85,0,0,1,0-18.17,3.5,3.5,0,0,0-4.95-5,19.85,19.85,0,0,0,0,28.07Z"></path><path d="M68.07,24.57a12.76,12.76,0,0,1-3.76,9.08,3.5,3.5,0,1,0,4.95,5,19.85,19.85,0,0,0,0-28.07,3.5,3.5,0,0,0-4.95,5A12.76,12.76,0,0,1,68.07,24.57Z"></path><path d="M25.12,47.73a3.5,3.5,0,0,0,2.47-6,24.31,24.31,0,0,1,0-34.37,3.5,3.5,0,0,0-4.95-5,31.34,31.34,0,0,0,0,44.27A3.49,3.49,0,0,0,25.12,47.73Z"></path><path d="M72.41,2.44a3.5,3.5,0,0,0,0,5,24.33,24.33,0,0,1,0,34.37,3.5,3.5,0,1,0,4.95,5,31.31,31.31,0,0,0,0-44.27A3.5,3.5,0,0,0,72.41,2.44Z"></path><path d="M43.3,36.54,24.87,85.26a3.46,3.46,0,0,0-.16.43l-3.09,8.16a3.5,3.5,0,1,0,6.55,2.48l3-7.85L50,67.48l18.9,21.08,2.94,7.77a3.5,3.5,0,0,0,6.55-2.48L75.3,85.71c0-.11-.07-.21-.12-.31L56.7,36.54a13.72,13.72,0,1,0-13.39,0ZM50,38.62l4.89,12.92L50,57l-4.89-5.45ZM38,70.37l4.33-11.45,3,3.31ZM54.7,62.24l3-3.32L62,70.41ZM50,17.85a6.72,6.72,0,1,1-6.72,6.72A6.73,6.73,0,0,1,50,17.85Z"></path></svg>