<?xml version="1.0"?>
<svg xmlns="http://www.w3.org/2000/svg" height="512px" viewBox="-53 0 474 474.50425" width="512px"><path d="m216.308594 98.503906c-.019532-15.242187-10.800782-28.351562-25.753906-31.308594-14.953126-2.960937-29.914063 5.054688-35.738282 19.140626-5.824218 14.085937-.890625 30.324218 11.789063 38.789062 12.675781 8.464844 29.566406 6.796875 40.34375-3.980469 5.980469-6.019531 9.347656-14.15625 9.359375-22.640625zm0 0" fill="#006DF0"/><path d="m304.308594 98.503906c.03125 31.828125-12.640625 62.351563-35.199219 84.800782-3.117187 3.128906-3.109375 8.195312.019531 11.316406 3.132813 3.117187 8.199219 3.109375 11.316406-.019532 25.511719-25.488281 39.847657-60.066406 39.847657-96.128906s-14.335938-70.644531-39.847657-96.128906c-3.136718-3.128906-8.21875-3.125-11.347656.011719s-3.125 8.21875.011719 11.347656c22.558594 22.453125 35.230469 52.976563 35.199219 84.800781zm0 0" fill="#006DF0"/><path d="m235.214844 160.71875c3.125 3.125 8.1875 3.125 11.3125 0 34.378906-34.351562 34.378906-90.078125 0-124.429688-3.140625-3.03125-8.128906-2.988281-11.214844.097657-3.085938 3.085937-3.128906 8.074219-.097656 11.214843 28.105468 28.113282 28.105468 73.691407 0 101.808594-3.125 3.121094-3.125 8.1875 0 11.308594zm0 0" fill="#006DF0"/><path d="m93.832031 196.984375c3.25.019531 6.1875-1.929687 7.433594-4.933594 1.246094-3 .550781-6.457031-1.753906-8.746093-22.507813-22.484376-35.152344-52.988282-35.152344-84.800782s12.644531-62.316406 35.152344-84.800781c3.117187-3.128906 3.109375-8.195313-.023438-11.316406-3.128906-3.117188-8.195312-3.109375-11.3125.023437-25.515625 25.484375-39.851562 60.066406-39.851562 96.125 0 36.0625 14.335937 70.644532 39.851562 96.128906 1.503907 1.492188 3.535157 2.324219 5.65625 2.320313zm0 0" fill="#006DF0"/><path d="m122.09375 160.71875c3.140625 3.035156 8.128906 2.988281 11.214844-.097656 3.085937-3.085938 3.128906-8.074219.097656-11.210938-28.109375-28.117187-28.109375-73.695312 0-101.808594 2.078125-2.011718 2.914062-4.984374 2.179688-7.78125-.730469-2.796874-2.914063-4.980468-5.710938-5.714843-2.796875-.730469-5.773438.101562-7.78125 2.183593-34.378906 34.351563-34.378906 90.078126 0 124.429688zm0 0" fill="#006DF0"/><path d="m192.308594 327.753906 83.410156-25.035156-31.488281-53.855469-51.921875 15.59375zm0 0" fill="#006DF0"/><path d="m192.308594 247.753906 43.617187-13.097656-43.617187-74.617188zm0 0" fill="#006DF0"/><path d="m176.308594 160.039062-43.613282 74.617188 43.613282 13.097656zm0 0" fill="#006DF0"/><path d="m176.308594 264.457031-51.917969-15.59375-31.488281 53.855469 83.40625 25.035156zm0 0" fill="#006DF0"/><path d="m176.308594 407.753906v-63.296875l-91.71875-27.554687-83.183594 143.722656c-1.4921875 2.46875-1.539062 5.550781-.125 8.066406 1.417969 2.511719 4.078125 4.070313 6.960938 4.070313 2.886718.003906 5.550781-1.546875 6.972656-4.058594l54.398437-92.96875zm0 0" fill="#006DF0"/><path d="m184.308594 418.503906c-4.417969 0-8 3.582032-8 8v40c0 4.417969 3.582031 8 8 8 4.417968 0 8-3.582031 8-8v-40c0-4.417968-3.582032-8-8-8zm0 0" fill="#006DF0"/><path d="m367.214844 460.625-83.183594-143.722656-91.722656 27.554687v63.296875l106.722656-32 54.398438 92.964844c1.421874 2.511719 4.085937 4.0625 6.972656 4.0625 2.882812-.003906 5.542968-1.5625 6.960937-4.074219 1.414063-2.515625 1.367188-5.597656-.125-8.066406zm0 0" fill="#006DF0"/></svg>
