<svg fill="#D88913" xmlns="http://www.w3.org/2000/svg" xmlns:xlink="http://www.w3.org/1999/xlink" version="1.1" x="0px" y="0px" viewBox="0 0 48 48" enable-background="new 0 0 48 48" xml:space="preserve"><g><path d="M43.366,20.244H25.622l-1.632-1.976c-1.273-1.656-2.779-3.188-5.161-3.188H4.634c-2.42,0-4.389,1.698-4.389,3.784v25.352   C0.245,46.302,2.213,48,4.634,48h38.732c2.42,0,4.389-1.698,4.389-3.784V24.028C47.755,21.942,45.786,20.244,43.366,20.244z"></path><path d="M41.993,22.693c-0.168,0-0.339-0.029-0.506-0.09c-0.762-0.279-1.152-1.124-0.873-1.886l2.592-7.067L13.957,3.337   L9.103,16.565c-0.28,0.763-1.127,1.151-1.885,0.874c-0.762-0.279-1.153-1.124-0.874-1.886l5.354-14.59   c0.277-0.755,1.111-1.144,1.868-0.88l32.022,11.291c0.37,0.131,0.673,0.404,0.841,0.76c0.167,0.355,0.185,0.763,0.05,1.132   l-3.105,8.464C43.154,22.324,42.592,22.693,41.993,22.693z"></path><path d="M36.702,17.529c-0.163,0-0.329-0.027-0.491-0.085l-19.47-6.92c-0.766-0.272-1.165-1.112-0.893-1.876   c0.271-0.766,1.112-1.167,1.876-0.893l19.47,6.92c0.765,0.271,1.164,1.111,0.893,1.876C37.873,17.154,37.307,17.529,36.702,17.529z   "></path></g></svg>