<?xml version="1.0"?>
<svg xmlns="http://www.w3.org/2000/svg" height="512px" viewBox="-40 0 448 448.07177" width="512px"><path d="m142.914062 302.847656c6.933594.394532 13.976563.691406 21.128907.886719 6.617187.175781 13.304687.265625 20 .265625 47.410156.757812 94.722656-4.519531 140.800781-15.703125 34.136719-9.402344 43.222656-19.695313 43.222656-24.296875v-56.273438c-.972656.648438-2.175781 1.257813-3.238281 1.882813-1.0625.621094-2.128906 1.292969-3.3125 1.917969-1.726563.914062-3.648437 1.800781-5.601563 2.679687-1.214843.554688-2.34375 1.121094-3.628906 1.65625-2.289062.960938-4.800781 1.878907-7.351562 2.792969-1.160156.421875-2.21875.863281-3.433594 1.273438-3.871094 1.308593-8 2.574218-12.367188 3.78125-12.441406 3.402343-25.054687 6.136718-37.785156 8.183593-35.484375 5.566407-71.359375 8.277344-107.28125 8.105469-35.929687.175781-71.816406-2.539062-107.308594-8.113281-12.738281-2.042969-25.359374-4.777344-37.800781-8.183594-4.394531-1.207031-8.488281-2.472656-12.351562-3.773437-1.242188-.417969-2.3125-.867188-3.496094-1.289063-2.511719-.914063-5.015625-1.824219-7.289063-2.769531-1.296874-.542969-2.402343-1.117188-3.640624-1.671875-1.917969-.878907-3.839844-1.757813-5.601563-2.671875-1.175781-.625-2.207031-1.269532-3.285156-1.902344-1.082031-.632812-2.273438-1.242188-3.2578128-1.890625v56.265625c0 4.601562 9.0898438 14.894531 43.1992188 24.289062 32.636719 8.28125 66.042969 13.160157 99.679687 14.558594zm0 0" fill="#006DF0"/><path d="m142.914062 158.847656c6.933594.390625 13.976563.6875 21.128907.886719 6.617187.175781 13.304687.265625 20 .265625 47.410156.757812 94.722656-4.519531 140.800781-15.703125 34.136719-9.402344 43.222656-19.695313 43.222656-24.296875v-56.273438c-.972656.648438-2.175781 1.257813-3.238281 1.882813-1.0625.621094-2.128906 1.292969-3.3125 1.917969-1.726563.914062-3.648437 1.800781-5.601563 2.679687-1.214843.554688-2.34375 1.121094-3.628906 1.65625-2.289062.960938-4.800781 1.878907-7.351562 2.792969-1.160156.421875-2.21875.863281-3.433594 1.273438-3.871094 1.308593-8 2.574218-12.367188 3.78125-12.441406 3.402343-25.054687 6.136718-37.785156 8.183593-35.484375 5.566407-71.359375 8.277344-107.28125 8.105469-35.929687.175781-71.816406-2.539062-107.308594-8.113281-12.738281-2.042969-25.359374-4.777344-37.800781-8.183594-4.394531-1.207031-8.488281-2.472656-12.351562-3.773437-1.242188-.417969-2.3125-.867188-3.496094-1.289063-2.511719-.914063-5.015625-1.824219-7.289063-2.769531-1.296874-.542969-2.402343-1.117188-3.640624-1.671875-1.917969-.878907-3.839844-1.757813-5.601563-2.671875-1.175781-.625-2.207031-1.269532-3.285156-1.902344-1.082031-.632812-2.273438-1.242188-3.2578128-1.890625v56.265625c0 4.601562 9.0898438 14.894531 43.1992188 24.289062 32.636719 8.28125 66.042969 13.160157 99.679687 14.558594zm0 0" fill="#006DF0"/><path d="m368.066406 408v-56.273438c-.972656.648438-2.175781 1.257813-3.238281 1.882813-1.0625.621094-2.128906 1.292969-3.3125 1.917969-1.726563.914062-3.648437 1.800781-5.601563 2.679687-1.214843.554688-2.34375 1.121094-3.628906 1.65625-2.289062.960938-4.800781 1.878907-7.351562 2.792969-1.160156.421875-2.21875.863281-3.433594 1.273438-3.871094 1.308593-8 2.574218-12.367188 3.78125-12.441406 3.402343-25.054687 6.136718-37.785156 8.183593-35.484375 5.566407-71.359375 8.277344-107.28125 8.105469-35.929687.175781-71.816406-2.539062-107.308594-8.113281-12.738281-2.042969-25.359374-4.777344-37.800781-8.183594-4.394531-1.207031-8.488281-2.472656-12.351562-3.773437-1.242188-.417969-2.3125-.867188-3.496094-1.289063-2.511719-.914063-5.015625-1.824219-7.289063-2.769531-1.296874-.542969-2.402343-1.117188-3.640624-1.671875-1.917969-.878907-3.839844-1.757813-5.601563-2.671875-1.175781-.625-2.207031-1.269532-3.285156-1.902344-1.082031-.632812-2.273438-1.242188-3.2578128-1.890625v56.265625c0 4.601562 9.0898438 14.894531 43.1992188 24.289062 46.089844 11.191407 93.414063 16.472657 140.832031 15.710938 47.410156.757812 94.722656-4.519531 140.800782-15.703125 34.113281-9.402344 43.199218-19.695313 43.199218-24.296875zm0 0" fill="#006DF0"/><path d="m327.011719 304.304688c-2.113281.566406-4.425781 1.070312-6.625 1.597656-2.199219.53125-4.527344 1.152344-6.933594 1.691406-2.648437.589844-5.457031 1.117188-8.226563 1.671875-2.535156.503906-5 1.039063-7.628906 1.511719-2.851562.511718-5.839844.957031-8.800781 1.429687-2.738281.441407-5.402344.90625-8.210937 1.3125-3.0625.441407-6.261719.800781-9.414063 1.207031-2.847656.351563-5.601563.746094-8.542969 1.074219-3.328125.367188-6.769531.664063-10.175781.984375-2.875.269532-5.679687.574219-8.601563.800782-3.6875.300781-7.472656.519531-11.199218.757812-2.746094.183594-5.449219.398438-8.234375.550781-4.238281.226563-8.566407.363281-12.878907.519531-2.398437.089844-4.710937.21875-7.101562.28125-6.75.203126-13.539062.304688-20.371094.304688-6.832031 0-13.613281-.089844-20.351562-.273438-2.320313-.0625-4.589844-.191406-6.902344-.269531-4.382812-.160156-8.800781-.296875-13.097656-.527343-2.671875-.144532-5.261719-.363282-7.894532-.53125-3.871093-.246094-7.769531-.476563-11.558593-.796876-2.84375-.234374-5.601563-.539062-8.363281-.800781-3.488282-.335937-7.023438-.640625-10.398438-1.015625-2.808594-.3125-5.496094-.6875-8.238281-1.03125-3.265625-.410156-6.570313-.800781-9.738281-1.25-2.695313-.382812-5.246094-.839844-7.871094-1.257812-3.054688-.484375-6.167969-.957032-9.121094-1.484375-2.535156-.457031-4.910156-.96875-7.359375-1.457031-2.863281-.570313-5.761719-1.121094-8.496094-1.730469-2.351562-.527344-4.527343-1.101563-6.785156-1.652344-2.253906-.554687-4.589844-1.066406-6.734375-1.640625-32.375 9.246094-41.0898438 19.214844-41.0898438 23.71875s9.0898438 14.894531 43.2031248 24.289062c11.894531 3.253907 23.957031 5.863282 36.132813 7.816407 34.621094 5.429687 69.621094 8.070312 104.664062 7.894531 35.050782.175781 70.0625-2.460938 104.691406-7.886719 12.167969-1.957031 24.226563-4.566406 36.117188-7.816406 34.105469-9.402344 43.191406-19.695313 43.191406-24.296875s-8.710937-14.472656-41.054687-23.695312zm0 0" fill="#006DF0"/><path d="m327.011719 160.304688c-2.113281.566406-4.425781 1.070312-6.625 1.597656-2.199219.53125-4.527344 1.152344-6.933594 1.691406-2.648437.589844-5.457031 1.117188-8.226563 1.671875-2.535156.503906-5 1.039063-7.628906 1.511719-2.851562.511718-5.839844.957031-8.800781 1.429687-2.738281.441407-5.402344.90625-8.210937 1.3125-3.0625.441407-6.261719.800781-9.414063 1.207031-2.847656.351563-5.601563.746094-8.542969 1.074219-3.328125.367188-6.769531.664063-10.175781.984375-2.875.269532-5.679687.574219-8.601563.800782-3.6875.300781-7.472656.519531-11.199218.757812-2.746094.183594-5.449219.398438-8.234375.550781-4.238281.226563-8.566407.363281-12.878907.519531-2.398437.089844-4.710937.21875-7.101562.28125-6.75.203126-13.539062.304688-20.371094.304688-6.832031 0-13.613281-.089844-20.351562-.273438-2.320313-.0625-4.589844-.191406-6.902344-.269531-4.382812-.160156-8.800781-.296875-13.097656-.527343-2.671875-.144532-5.261719-.363282-7.894532-.53125-3.871093-.246094-7.769531-.476563-11.558593-.796876-2.84375-.234374-5.601563-.539062-8.363281-.800781-3.488282-.335937-7.023438-.640625-10.398438-1.015625-2.808594-.3125-5.496094-.6875-8.238281-1.03125-3.265625-.410156-6.570313-.800781-9.738281-1.25-2.695313-.382812-5.246094-.839844-7.871094-1.257812-3.054688-.484375-6.167969-.957032-9.121094-1.484375-2.535156-.457031-4.910156-.96875-7.359375-1.457031-2.863281-.570313-5.761719-1.121094-8.496094-1.730469-2.351562-.527344-4.527343-1.101563-6.785156-1.652344-2.253906-.554687-4.589844-1.066406-6.734375-1.601563-32.375 9.207032-41.0898438 19.175782-41.0898438 23.679688s9.0898438 14.894531 43.2031248 24.289062c11.894531 3.253907 23.957031 5.863282 36.132813 7.816407 34.621094 5.429687 69.621094 8.070312 104.664062 7.894531 35.050782.175781 70.0625-2.460938 104.691406-7.886719 12.167969-1.957031 24.226563-4.566406 36.117188-7.816406 34.105469-9.402344 43.191406-19.695313 43.191406-24.296875s-8.710937-14.472656-41.054687-23.695312zm0 0" fill="#006DF0"/><path d="m184.066406 0c-112.320312 0-183.9999998 23.6875-183.9999998 40 0 4.601562 9.0898438 14.894531 43.2031248 24.289062 11.894531 3.253907 23.957031 5.863282 36.132813 7.816407 34.621094 5.429687 69.621094 8.070312 104.664062 7.894531 35.050782.175781 70.0625-2.460938 104.691406-7.886719 12.167969-1.957031 24.226563-4.566406 36.117188-7.816406 34.105469-9.402344 43.191406-19.695313 43.191406-24.296875 0-16.3125-71.679687-40-184-40zm0 0" fill="#006DF0"/></svg>
