<?xml version="1.0" encoding="utf-8"?>
<!-- Generator: Adobe Illustrator 19.0.0, SVG Export Plug-In . SVG Version: 6.00 Build 0)  -->
<svg version="1.1" id="Layer_1" xmlns="http://www.w3.org/2000/svg" xmlns:xlink="http://www.w3.org/1999/xlink" x="0px" y="0px"
	 viewBox="0 0 104.9 19.4" style="enable-background:new 0 0 104.9 19.4;" xml:space="preserve">
<style type="text/css">
	.st0{fill:none;}
	.st1{font-family:'Helvetica';}
	.st2{font-size:5px;}
</style>
<path id="XMLID_4_" d="M11.6,0H7.4L0,19.4h4.2l1.5-4.5h7.7l1.6,4.5h4.3L11.6,0z M7,11.7l2.5-6.9l2.6,6.9H7z M28.7,5.8
	c-0.4-0.3-1-0.6-1.2-0.6C27.4,5.1,26.8,5,26.4,5c-0.7,0-1,0-1.6,0.4c-0.7,0.4-1.1,0.8-1.6,1.7l-0.1-1.9h-3.4v14.1h3.8v-8.3
	c0.1-0.8,0.1-0.7,0.6-1.7c0.5-0.5,0.3-0.6,1.2-0.9c0.4-0.2,0.7-0.2,1.5-0.1C27,8.6,27,8.6,27.2,8.7L27.6,9L28.7,5.8z M37.1,15.8
	l-0.2,0.1c-0.2,0.1-0.2,0-0.5,0.2c-0.3,0.2-0.4,0.3-0.8,0.3c-0.4,0-0.3-0.1-0.5-0.2c-0.3-0.2-0.3-0.1-0.5-0.4c0-0.4,0-0.7,0-1.1
	v-1.8V8.1l2.4,0V5.1h-2.4V0.1h-3.8v4.9H29v3.1h1.6v5.8c0,1.7-0.1,3.5,0.6,4.3c0.7,0.8,1.8,1.1,3.2,1.1c0.4,0,0.9,0,1.4-0.1
	c0.5-0.1,0.9-0.2,1.4-0.3L37.1,15.8z M51.1,0H35.6v3.4h5.7l0,16h4l0-16h5.8V0z M59,9.6c0-0.9-0.1-2-0.4-2.6c-0.3-0.6-1-1.3-1.7-1.7
	c-0.9-0.3-0.9-0.3-1.8-0.5c-0.8-0.1-1.7-0.2-2.7-0.1c-0.9,0-1.9,0.1-3,0.7c-0.9,0.4-2.3,2.3-2.3,3.3l3.3,0.5h0.1
	c0.2-0.8,0.5-1.3,1.3-1.6c0.8-0.2,0.5-0.1,1.1-0.2c0.6-0.1,0.9,0,1.4,0.1c0.5,0.2,0.5,0.3,0.8,0.6c0.3,0.4,0.3,0.3,0.3,0.7
	c0,0.4,0,0.1,0,0.6l0,0.5c-1.3,0.2-1.8,0.4-3,0.6c-1.5,0.3-2.3,0.5-3.1,0.9c-1,0.5-1.4,0.8-1.8,1.5c-0.5,0.6-0.7,1-0.7,2
	c0,1.3,0.4,2.4,1.3,3.2c0.9,0.8,1.9,1.1,3.2,1.1c0.7,0,1.3-0.1,1.8-0.2c0.5-0.1,0.8-0.3,1.2-0.5c0.3-0.1,0.5-0.2,0.8-0.5
	c0.4-0.3,0.5-0.5,0.7-0.6l0.6,1.7h3.7L59,17V9.6z M54.2,16.2c-0.7,0.3-0.9,0.5-1.7,0.5c-1,0-1.1-0.2-1.6-0.6
	c-0.4-0.5-0.5-0.4-0.5-1.2c0-0.7,0.3-0.9,0.7-1.3c0.4-0.2,0.4-0.2,1.1-0.4c0.6-0.2,0.7-0.2,1.6-0.4c0.9-0.2,0.7-0.2,1.5-0.3v2.2
	C55.1,15.2,54.9,15.8,54.2,16.2 M69.5,13.6l0,0.1c0,0.2,0,0.3-0.1,0.4c0,0.3-0.1,0.4-0.2,0.7c-0.2,0.5-0.5,0.9-0.9,1.2
	c-0.5,0.1-1,0.3-1.5,0.3c-1.2-0.1-1.1,0-2-0.7c-0.7-0.9-1.1-1.9-1.1-3.6c0-1.7,0-1.9,0.3-2.8c0.5-1,0.8-1.3,2.1-1.5
	c0.7-0.1,1.1-0.1,1.8,0.2s1.2,1,1.3,1.8h0.1l3.6-0.6C72,5.9,70,5.4,69.2,5.1c-0.8-0.2-1.5-0.3-2.3-0.3c-2,0-3.7,0.6-4.9,1.9
	C60.7,8,60.1,9.8,60.1,12c0,1.2,0.2,2.3,0.5,3.2c0.3,0.9,0.8,1.7,1.4,2.3c0.6,0.6,1.3,1,2.1,1.3c0.8,0.3,1.7,0.4,2.7,0.4
	c0.8,0,1.5-0.1,2.2-0.3c0.7-0.2,3-0.5,4.2-4.6L69.5,13.6z M81.6,15.8l-0.1,0.1c-0.2,0.1-0.2,0.1-0.6,0.3c-0.2,0.1-0.3,0.2-0.6,0.2
	c-0.3,0-0.2,0-0.6-0.1c-0.3-0.2-0.1,0-0.3-0.3c-0.2-0.4-0.2-0.6-0.2-1c0-0.4,0-1,0-1.8V8.2h2.5V5H79V0.1h-3.8l0,4.9l-1.8,0v3.1
	l1.8,0l0,6.1c0,1.7,0.2,3.4,0.9,4.1c0.7,0.8,2,0.8,3.4,0.8c0.4,0,0.7-0.1,1.2-0.1c0.5-0.1,0.6-0.2,1-0.3L81.6,15.8z M86.4,0h-3.8
	v3.5l3.8,0L86.4,0z M86.3,5.4h-3.8l-0.1,14h3.8L86.3,5.4z M96.7,13.7h-0.1c-0.1,0.3-0.3,1-0.5,1.5c-0.2,0.3-0.1,0.3-0.5,0.6
	c-0.3,0.2-0.2,0.2-0.7,0.4c-0.5,0.1-0.2,0.1-0.7,0.1c-1.4,0-1.4,0.1-2.3-0.6c-0.7-0.9-1.1-2-1.1-3.7c0-1.7,0.1-2.6,0.9-3.5
	c0.8-0.7,0.6-0.7,2-0.8c0.7-0.1,1.2,0.1,1.9,0.6c0.5,0.4,0.7,0.9,0.9,1.6h0.1l3.5-0.7c-1-3.2-3.2-4-4-4.2s-1.5-0.3-2.3-0.3
	c-2,0-3.7,0.6-4.9,1.9C87.7,8,87,9.7,87,12c0,1.2,0.2,2.3,0.5,3.2c0.3,0.9,0.8,1.7,1.4,2.3c0.6,0.6,1.3,1,2.1,1.3
	c0.8,0.3,1.7,0.4,2.7,0.4c0.8,0,2-0.1,2.7-0.3c0.7-0.2,3.3-1.4,3.7-4.5L96.7,13.7z"/>
<rect id="XMLID_1_" x="101.2" y="0.4" class="st0" width="22.1" height="8.6"/>
<text id="XMLID_2_" transform="matrix(1 0 0 1 101.202 4.0337)" class="st1 st2">®</text>
</svg>
