<?xml version="1.0" encoding="UTF-8" standalone="no"?>
<svg
   xmlns:dc="http://purl.org/dc/elements/1.1/"
   xmlns:cc="http://creativecommons.org/ns#"
   xmlns:rdf="http://www.w3.org/1999/02/22-rdf-syntax-ns#"
   xmlns:svg="http://www.w3.org/2000/svg"
   xmlns="http://www.w3.org/2000/svg"
   xmlns:sodipodi="http://sodipodi.sourceforge.net/DTD/sodipodi-0.dtd"
   xmlns:inkscape="http://www.inkscape.org/namespaces/inkscape"
   version="1.1"
   id="svg2"
   viewBox="0 0 354.33071 354.3307"
   height="100mm"
   width="100mm"
   inkscape:version="0.91 r13725"
   sodipodi:docname="favicon.svg"
   inkscape:export-filename="/home/richard/Code/External/cl/source/assets/images/favicon.png"
   inkscape:export-xdpi="8.1279993"
   inkscape:export-ydpi="8.1279993">
  <sodipodi:namedview
     pagecolor="#ffffff"
     bordercolor="#666666"
     borderopacity="1"
     objecttolerance="10"
     gridtolerance="10"
     guidetolerance="10"
     inkscape:pageopacity="0"
     inkscape:pageshadow="2"
     inkscape:window-width="1600"
     inkscape:window-height="876"
     id="namedview4216"
     showgrid="false"
     fit-margin-top="0"
     fit-margin-left="0"
     fit-margin-right="0"
     fit-margin-bottom="0"
     inkscape:zoom="1.153415"
     inkscape:cx="372.65663"
     inkscape:cy="71.744688"
     inkscape:window-x="0"
     inkscape:window-y="24"
     inkscape:window-maximized="1"
     inkscape:current-layer="svg2" />
  <defs
     id="defs4">
    <clipPath
       clipPathUnits="userSpaceOnUse"
       id="clipPath4762">
      <rect
         style="opacity:0.51999996;fill:#0000ff;fill-rule:evenodd;stroke:#000000;stroke-width:1px;stroke-linecap:butt;stroke-linejoin:miter;stroke-opacity:1"
         id="rect4764"
         width="359.74948"
         height="230.14316"
         x="120.36163"
         y="1688.1301" />
    </clipPath>
  </defs>
  <metadata
     id="metadata7">
    <rdf:RDF>
      <cc:Work
         rdf:about="">
        <dc:format>image/svg+xml</dc:format>
        <dc:type
           rdf:resource="http://purl.org/dc/dcmitype/StillImage" />
        <dc:title></dc:title>
      </cc:Work>
    </rdf:RDF>
  </metadata>
  <path
     style="fill:#040100;fill-opacity:0.73333333"
     d="m 55.375014,303.74578 -0.028,-1.44881 c -0.0154,-0.79685 -0.88613,-9.54403 -1.93501,-19.4382 -1.04887,-9.89416 -2.89013,-27.33421 -4.09169,-38.75565 -1.20156,-11.42146 -2.36977,-22.50485 -2.59603,-24.62977 -0.55923,-5.2521 -3.13575,-29.74637 -4.05126,-38.5142 -0.40908,-3.91782 -0.79028,-7.36122 -0.8471,-7.65197 -0.0811,-0.41518 -0.29327,-0.55479 -0.98825,-0.65047 -0.48672,-0.067 -8.24699,-0.29167 -17.245036,-0.49926 -18.6106903,-0.42933 -21.2577003,-0.54691 -21.2577003,-0.94432 0,-0.15148 17.0164803,-19.98848 37.8120263,-44.08498 L 77.959004,83.319327 111.7875,80.719076 c 18.60569,-1.43014 45.31704,-3.473646 59.35859,-4.541101 14.04155,-1.06749 26.09279,-2.023752 26.78054,-2.125063 l 1.25045,-0.184198 0.10421,-11.590471 0.1042,-11.590483 9.69101,0 9.69102,0 0.0543,10.735822 c 0.0299,5.904702 0.12365,10.810761 0.20841,10.902338 0.0847,0.09154 3.0614,-0.06708 6.61478,-0.352663 l 6.46067,-0.519227 0.1042,-9.055057 0.10421,-9.055059 8.54476,0 8.54476,0 0.0549,8.201126 c 0.0302,4.510607 0.12882,8.286737 0.21912,8.391361 0.0903,0.104628 8.58697,-0.460786 18.88143,-1.256497 10.29446,-0.795734 18.79672,-1.389843 18.89393,-1.320233 0.0972,0.06963 3.24744,4.768101 7.00049,10.441113 11.70268,17.689362 34.47235,52.087656 45.85528,69.273846 9.38876,14.17531 11.16801,16.9608 10.85044,16.98673 -0.0287,0.002 -6.6019,0.48288 -14.60721,1.0679 -8.0053,0.58499 -14.60492,1.12138 -14.66582,1.19192 -0.1457,0.16881 -0.23385,0.72979 -1.95885,12.46549 -2.87209,19.53988 -4.57018,31.08145 -8.20673,55.77918 -2.02392,13.7456 -4.08723,27.76282 -4.58514,31.14941 -0.49791,3.3866 -1.94814,13.25171 -3.22275,21.92249 -1.27461,8.67077 -2.87476,16.2247 -2.80664,16.35244 z"
     id="path4831"
     inkscape:connector-curvature="0"
     sodipodi:nodetypes="csssssccssccssscccccscscccccssscsscscsssscc" />
  <g
     id="flowRoot3478"
     style="font-style:normal;font-weight:normal;font-size:40px;line-height:125%;font-family:Sans;letter-spacing:0px;word-spacing:0px;fill:#000000;fill-opacity:1;stroke:none;stroke-width:1px;stroke-linecap:butt;stroke-linejoin:miter;stroke-opacity:1"
     transform="translate(-81.127968,17.730756)" />
  <g
     id="flowRoot3488"
     style="font-style:normal;font-weight:normal;font-size:40px;line-height:125%;font-family:Sans;letter-spacing:0px;word-spacing:0px;fill:#000000;fill-opacity:1;stroke:none;stroke-width:1px;stroke-linecap:butt;stroke-linejoin:miter;stroke-opacity:1"
     transform="translate(-81.127968,17.730756)" />
  <rect
     style="opacity:1;fill:#ffffff;fill-opacity:1;stroke:none;stroke-width:10;stroke-linejoin:round;stroke-miterlimit:4;stroke-dasharray:none;stroke-opacity:0.73333333"
     id="rect4900"
     width="185.74533"
     height="24.381687"
     x="127.70027"
     y="64.048897"
     transform="matrix(0.99731182,-0.07327432,0.04857807,0.99881939,0,0)" />
</svg>
