<?xml version="1.0" encoding="UTF-8" standalone="no"?>
<svg
   xmlns:dc="http://purl.org/dc/elements/1.1/"
   xmlns:cc="http://creativecommons.org/ns#"
   xmlns:rdf="http://www.w3.org/1999/02/22-rdf-syntax-ns#"
   xmlns:svg="http://www.w3.org/2000/svg"
   xmlns="http://www.w3.org/2000/svg"
   xmlns:sodipodi="http://sodipodi.sourceforge.net/DTD/sodipodi-0.dtd"
   xmlns:inkscape="http://www.inkscape.org/namespaces/inkscape"
   fill="#D88913"
   version="1.1"
   x="0px"
   y="0px"
   viewBox="0 0 40 40"
   enable-background="new 0 0 40 40"
   xml:space="preserve"
   id="svg3033"
   inkscape:version="0.48.4 r9939"
   width="100%"
   height="100%"
   sodipodi:docname="store6.svg"><metadata
     id="metadata3041"><rdf:RDF><cc:Work
         rdf:about=""><dc:format>image/svg+xml</dc:format><dc:type
           rdf:resource="http://purl.org/dc/dcmitype/StillImage" /></cc:Work></rdf:RDF></metadata><defs
     id="defs3039" /><sodipodi:namedview
     pagecolor="#ffffff"
     bordercolor="#666666"
     borderopacity="1"
     objecttolerance="10"
     gridtolerance="10"
     guidetolerance="10"
     inkscape:pageopacity="0"
     inkscape:pageshadow="2"
     inkscape:window-width="1346"
     inkscape:window-height="734"
     id="namedview3037"
     showgrid="false"
     inkscape:zoom="11.8"
     inkscape:cx="13.254335"
     inkscape:cy="20.515708"
     inkscape:window-x="173"
     inkscape:window-y="126"
     inkscape:window-maximized="0"
     inkscape:current-layer="svg3033" /><path
     clip-rule="evenodd"
     d="M 29.382009,4.7542375 H 10.617993 L 9.4452407,7.0997394 H 30.55476 L 29.382009,4.7542375 z m 4.691003,7.0365065 H 5.9269883 l -1.172751,2.345502 H 35.245763 L 34.073012,11.790744 z M 31.72751,8.2724904 H 8.2724898 L 7.0997392,10.617992 H 32.900261 L 31.72751,8.2724904 z M 4.7542373,35.245763 H 35.245763 V 15.308997 H 4.7542373 v 19.936766 z m 8.2092577,-12.90026 h 2.345501 c 0,0 0,1.64185 0,2.345502 0,0.70365 0.703652,1.17275 1.641852,1.17275 h 6.21558 c 0.938201,0 1.641851,-0.4691 1.641851,-1.17275 0,-0.703652 0,-2.345502 0,-2.345502 h 2.345503 c 0,0 0,0.351825 0,2.345502 0,1.993676 -1.641852,3.518252 -3.752803,3.518252 h -6.567407 c -2.110951,0 -3.752803,-1.524576 -3.752803,-3.518252 0,-1.993677 -0.117274,-2.345502 -0.117274,-2.345502 z"
     id="path3035"
     inkscape:connector-curvature="0"
     style="fill-rule:evenodd" /></svg>