<svg fill="#D64550" xmlns="http://www.w3.org/2000/svg" data-name="Layer 1" viewBox="0 0 100 100" x="0px" y="0px"><title>Artboard 28</title><path d="M99,55.41A12.31,12.31,0,0,1,95.39,65L78.08,82.27V93.76H53.9L54,79.39A24.74,24.74,0,0,1,61.21,62L76,47.17a5,5,0,0,1,7.38.36,5.13,5.13,0,0,1-.48,6.84L75.81,61.5A1.65,1.65,0,0,0,76,64a1.7,1.7,0,0,0,2.18-.23l8.19-8.19a5.87,5.87,0,0,0,1.71-4.49l-1.27-19a5.17,5.17,0,0,1,10.33-.65ZM38.79,62,24,47.17a5,5,0,0,0-7.38.36,5.13,5.13,0,0,0,.48,6.84l7.12,7.12A1.65,1.65,0,0,1,24,64a1.7,1.7,0,0,1-2.18-.23l-8.19-8.19a5.87,5.87,0,0,1-1.71-4.49l1.27-19A5.17,5.17,0,0,0,2.85,31.4L1,55.41A12.31,12.31,0,0,0,4.61,65L21.92,82.27V93.76H46.1L46,79.39A24.74,24.74,0,0,0,38.79,62ZM69.31,39.8a4.65,4.65,0,0,0,.37-.63,4.25,4.25,0,0,0,.26-.67,4,4,0,0,0,.14-.69,3.78,3.78,0,0,0-.38-2.08,4.11,4.11,0,0,0-.74-1,4.58,4.58,0,0,0-1-.8,5.25,5.25,0,0,0-1.29-.51,6,6,0,0,0-1.46-.18H58.9l1-21.63a5,5,0,0,0-1.43-3.75,5.22,5.22,0,0,0-1.7-1.16,5.42,5.42,0,0,0-2.13-.43H45.33a5.42,5.42,0,0,0-2.13.43,5.22,5.22,0,0,0-1.7,1.16,5,5,0,0,0-1.43,3.75L41,33.2H35a6.91,6.91,0,0,0-1.27.12,6.09,6.09,0,0,0-1.18.34,5,5,0,0,0-1,.56,4.08,4.08,0,0,0-.82.78,4,4,0,0,0-.7,1.33,3.78,3.78,0,0,0-.15,1.41,4.08,4.08,0,0,0,.37,1.39,4.79,4.79,0,0,0,.87,1.26l15,15.82a4.35,4.35,0,0,0,.78.65,5.12,5.12,0,0,0,.93.48,5.76,5.76,0,0,0,1,.3,6.14,6.14,0,0,0,2.24,0,5.74,5.74,0,0,0,1-.3,5.08,5.08,0,0,0,.93-.48,4.28,4.28,0,0,0,.77-.65l15-15.82A5.09,5.09,0,0,0,69.31,39.8Z"></path></svg>