<?xml version="1.0" encoding="utf-8"?>
<!-- Generator: Adobe Illustrator 16.0.0, SVG Export Plug-In . SVG Version: 6.00 Build 0)  -->
<!DOCTYPE svg PUBLIC "-//W3C//DTD SVG 1.1//EN" "http://www.w3.org/Graphics/SVG/1.1/DTD/svg11.dtd">
<svg version="1.1" id="Layer_1" xmlns="http://www.w3.org/2000/svg" xmlns:xlink="http://www.w3.org/1999/xlink" x="0px" y="0px"
	 width="293.333px" height="62px" viewBox="0 0 293.333 62" enable-background="new 0 0 293.333 62" xml:space="preserve">
<g>
	<g>
		<path d="M210.049,28.465c0-2.664,0.746-3.313,3.214-3.364v-2.234h-13.715v2.234c2.475,0.05,3.175,0.7,3.175,3.364v21.362
			c0,2.659-0.7,3.313-3.175,3.313v2.147h13.715v-2.147c-2.468,0-3.214-0.654-3.214-3.313v-9.422h11.099v9.422
			c0,2.659-0.747,3.313-3.212,3.313v2.147h13.713v-2.147c-2.473,0-3.228-0.654-3.228-3.313V28.465c0-2.664,0.755-3.313,3.228-3.364
			v-2.234h-13.713v2.234c2.465,0.05,3.212,0.7,3.212,3.364v8.438h-11.099V28.465z"/>
		<path d="M256.185,48.247V31.079h-1.128l-8.576,1.639v2.048c2.279,0.092,2.797,0.559,2.797,3.963v10.875
			c-1.401,1.162-2.612,1.726-4.2,1.726c-2.143,0-2.987-1.262-2.987-3.784V31.079h-1.123l-8.574,1.639v2.048
			c2.281,0.092,2.748,0.559,2.748,3.963v10.455c0,4.614,2.659,6.622,6.673,6.622c3.546,0,6.018-1.54,7.838-3.78
			c0.141,1.772,0.792,3.081,1.259,3.78h0.705l7.46-1.681v-1.912C256.69,52.025,256.185,51.653,256.185,48.247"/>
		<path d="M270.692,49.879v-24.21c0-2.148-0.325-3.778-0.846-4.62h-0.698l-8.44,1.26v2.053c2.429,0.096,3.074,0.562,3.074,3.965
			v21.598c0,2.661-0.512,3.221-2.889,3.266v2.098h12.685V53.19C271.155,53.146,270.692,52.539,270.692,49.879"/>
		<path d="M285.244,49.879v-24.21c0-2.148-0.318-3.778-0.839-4.62h-0.704l-8.438,1.26v2.053c2.426,0.096,3.073,0.562,3.073,3.965
			v21.598c0,2.661-0.508,3.221-2.891,3.266v2.098h12.69V53.19C285.714,53.146,285.244,52.539,285.244,49.879"/>
	</g>
	<g>
		<path d="M128.386,24.662c0,0-0.302,2.249-0.319,2.249c0,0,0.168-0.02-7.667,0h-7.737c0,0-0.281-2.249-0.301-2.249h8.038H128.386
			 M129.758,15.894c0,0-0.44-2.429-2.18-1.786c0,0-1.908,0.836-0.575,3.643c0,0,0.266-0.902,1.069-0.819
			c0,0,1.566,0.179,0.793,2.137c0,0-0.599,1.386-1.821,1.068c0,0-1.758-0.157-1.758-2.734c0,0-1.204,2.276-2.594,2.08
			c0,0-1.73,0.163-1.692-1.846c0,0,0.109-1.469,1.381-1.706c0,0,1.513-0.163,1.239,1.269c0,0,3.445-2.915,0.284-4.696
			c0,0-1.355-0.625-2.542,0.727c0,0,0.614-0.71,0.651-1.666c0,0,0.562-1.739-1.614-2.933V8.628c-0.001,0-0.002,0.001-0.003,0.002
			c-0.001-0.001-0.002-0.002-0.003-0.002v0.004c-2.173,1.193-1.62,2.933-1.62,2.933c0.041,0.956,0.657,1.666,0.657,1.666
			c-1.185-1.352-2.545-0.727-2.545-0.727c-3.158,1.782,0.291,4.696,0.291,4.696c-0.275-1.432,1.23-1.269,1.23-1.269
			c1.277,0.236,1.396,1.706,1.396,1.706c0.023,2.008-1.707,1.846-1.707,1.846c-1.384,0.196-2.584-2.08-2.584-2.08
			c0,2.578-1.759,2.734-1.759,2.734c-1.22,0.318-1.822-1.068-1.822-1.068c-0.771-1.958,0.79-2.137,0.79-2.137
			c0.809-0.083,1.067,0.819,1.067,0.819c1.337-2.807-0.574-3.643-0.574-3.643c-1.734-0.644-2.176,1.786-2.176,1.786
			c-1.109-2.896-3.375-2.141-3.375-2.141c3.375,4.562,4.522,8.884,4.522,8.884h16.42c0,0,1.154-4.323,4.529-8.884
			C133.133,13.753,130.868,12.998,129.758,15.894z M112.228,28.806h8.173v2.273h-8.173c0,0-1.133-0.005-1.133-1.138
			C111.094,29.941,111.094,28.806,112.228,28.806z M129.722,29.941c0,1.133-1.14,1.138-1.14,1.138h-8.175v-2.273h8.175
			C129.722,28.806,129.722,29.941,129.722,29.941z"/>
		<path d="M54.286,24.812c-1.708,0.013-1.708-2.437,0-2.432l11.215,0.003c1.715-0.003,1.715,2.442,0,2.429
			C65.501,24.817,54.286,24.817,54.286,24.812 M56.142,28.829c0,0.006,7.51,0.006,7.51,0c1.709,0.01,1.709-2.433,0-2.43h-7.51
			C54.434,26.396,54.434,28.839,56.142,28.829 M57.981,32.847h3.828c1.706,0.009,1.706-2.434,0-2.428h-3.828
			C56.277,30.413,56.277,32.855,57.981,32.847 M53.511,20.791c0,0-1.749-1.467-0.285-4.907c0,0,1.326,1.948,3.585,2.309
			c0,0,0.959-3.661,3.414-4.144c0,0-0.877,2.258,1.462,4.204c0,0,2.032-2.876,4.598-2.85c0,0-1.411,1.465-0.59,2.818
			c0,0,0.758,1.585-0.145,2.57c0,0,1.611,0,2.792-1.015c0,0,1.761-1.018,0.932-4.821c0,0-0.42-2.597,3.667-3.529
			c0,0-4.679-1.999-9.417,1.33c0,0-2.262-3.329,2.372-6.037c0,0-7.793-0.675-11.203,6.797c0,0-2.872-1.414-0.986-4.993
			c0,0-5.329,1.949-4.85,8.238C48.856,16.761,48.975,20.791,53.511,20.791"/>
		<path d="M96.058,18.938c0,0-0.763-0.5-0.339-1.384c0,0,0.281-0.984-0.307-1.716c0,0-0.709-0.832-1.563-0.254l-0.055,0.075
			c0.004-0.011,0.423-1.072-0.688-1.542c0,0-0.714-0.405-1.885,0.382c0,0-0.714,0.568-1.424-0.095c0,0-0.847-0.581-1.719-0.25
			c0,0-1.014,0.422-0.736,1.414l0.041,0.057c-0.109-0.083-0.918-0.655-1.658,0.197c0,0-0.609,0.549-0.217,1.911
			c0,0,0.314,0.851-0.534,1.314c0,0-0.811,0.633-0.768,1.572c0,0,0.084,1.091,1.115,1.127l0.086-0.028
			c-0.028,0.019-0.956,0.631-0.349,1.65c0,0,0.339,0.746,1.754,0.796c0,0,0.909-0.044,1.098,0.912c0,0,0.341,0.974,1.248,1.22
			c0,0,1.061,0.249,1.411-0.716v-0.091c0,0,0.288,1.118,1.465,0.842c0,0,0.818-0.087,1.295-1.418c0,0,0.246-0.875,1.214-0.752
			c0,0,1.025-0.033,1.54-0.817c0,0,0.576-0.939-0.245-1.572l-0.085-0.027c0.009,0,1.149,0.068,1.252-1.13
			C97.006,20.612,97.171,19.81,96.058,18.938z M93.781,21.105c0,0-0.619,2.207-3.211,2.327V23.42c0,0-2.288,0.089-3.204-2.342
			l0.008-0.003c0,0-0.79-2.149,1.236-3.771l0.007,0.01c0,0,1.795-1.417,3.967,0.009l-0.006,0.008c0,0,1.907,1.275,1.222,3.78
			l1.494,0.484L93.781,21.105z M89.017,20.075c0-0.88,0.716-1.599,1.599-1.599s1.6,0.719,1.6,1.599c0,0.884-0.717,1.601-1.6,1.601
			S89.017,20.959,89.017,20.075 M103.01,18.476c0,0-0.636-1.988-2.611-1.58c0,0,1.777-0.981,1.167-2.801c0,0-0.878-2.49-3.466-1.906
			c0,0-1.061,0.121-1.535-0.303l-0.373,0.51l0.378-0.521c0,0-0.56-0.314-0.761-1.375c0,0-0.23-2.635-2.883-2.71
			c0,0-2.084-0.005-2.311,1.998c0,0-0.374-2.003-2.299-1.979c0,0-2.634,0.069-2.885,2.713c0,0-0.213,1.035-0.764,1.357l-0.003-0.004
			c0,0-0.478,0.435-1.541,0.297c0,0-2.574-0.591-3.474,1.911c0,0-0.647,1.979,1.187,2.81c0,0-2.014-0.254-2.59,1.58
			c0,0-0.753,2.525,1.681,3.577c0,0,0.929,0.522,1.064,1.146l-0.005,0.002c0,0,0.267,0.586-0.193,1.565c0,0-1.362,2.268,0.733,3.887
			c0,0,1.692,1.23,3.044-0.257c0,0-0.863,1.84,0.697,2.947c0,0,2.176,1.496,3.929-0.498c0,0,0.788-0.715,1.418-0.648l0.005-1.312
			v1.316c0,0,0.636-0.071,1.422,0.671c0,0,1.737,1.992,3.925,0.493c0,0,1.689-1.222,0.695-2.97c0,0,1.484,1.395,3.025,0.252
			c0,0,2.088-1.614,0.742-3.896c0,0-0.442-0.965-0.192-1.551l-0.71-0.233l0.722,0.233c0,0,0.121-0.627,1.071-1.147
			C101.32,22.05,103.754,21.015,103.01,18.476z M99.624,20.976c0,0-0.276,1.469-1.852,1.413l-0.028-0.009
			c0,0,0.011,0.008,0.014,0.01c-0.004,0-0.006,0.001-0.01,0.001l0.019,0.006c0.121,0.086,1.264,0.948,0.656,2.243
			c0,0-0.704,1.532-2.574,1.146c0,0-1.127-0.251-1.423,1.03c0,0-0.216,1.904-1.889,2.1c0,0-1.496,0.195-1.913-1.327V27.57
			c0,0-0.003,0.009-0.003,0.01c0-0.002-0.001-0.002-0.001-0.004v0.009c-0.024,0.081-0.478,1.502-1.933,1.327
			c0,0-1.676-0.195-1.889-2.103c0,0-0.104-1.147-1.423-1.029c0,0-1.873,0.385-2.58-1.15c0,0-0.645-1.354,0.675-2.232l0.016-0.005
			c0,0-0.008,0-0.009,0c0.001-0.001,0.002-0.002,0.003-0.003l-0.009,0.003c-0.08,0.001-1.578,0.014-1.86-1.432
			c0,0-0.328-1.652,1.415-2.44c0,0,1.058-0.454,0.546-1.672c0,0-0.951-1.662,0.291-2.809c0,0,1.085-1.026,2.33-0.046l0.013,0.018
			c0,0-0.003-0.011-0.004-0.012c0.001,0.001,0.002,0.001,0.004,0.002l-0.005-0.007c-0.032-0.092-0.486-1.504,0.781-2.208
			c0,0,1.472-0.83,2.76,0.588c0,0,0.765,0.864,1.756,0c0,0,1.292-1.418,2.763-0.588c0,0,1.317,0.715,0.768,2.203l-0.01,0.014
			c0,0,0.007-0.005,0.008-0.006c0,0.002,0,0.003-0.001,0.005l0.006-0.008c0.068-0.052,1.273-0.935,2.35,0.064
			c0,0,1.229,1.143,0.291,2.802c0,0-0.591,0.99,0.536,1.678C98.209,18.538,99.956,19.32,99.624,20.976z"/>
		<path d="M174.008,11.714c-0.431-2.041-1.822-2.206-2.37-2.193c0,0.004-0.01,0.72,0,0.72c0.62-0.005,0.782,0.505,0.782,0.734
			c-0.045,0.735-0.719,0.739-0.719,0.739c-0.439-0.007-0.747-0.348-0.747-0.721c-0.002-0.432,0.325-0.713,0.684-0.752
			c0.011,0.002,0-0.722,0-0.722c-1.815-0.032-1.752,1.463-1.752,1.463c-0.436,0.365-1.296,0.678-1.296,0.678
			c-0.292,0.241-0.313,0.698-0.313,0.698c-0.018,0.248,0.017,0.338,0.017,0.32c1.644-0.684,2.016-0.331,2.016-0.331l0.294,0.228
			c0.402,0.538,0.518,1.737,0.518,1.737c-0.327,2.309-2.285,2.363-1.961,5.663c0.213,5.372,7.473,6.759,7.473,6.759
			c0.407,0.811-0.509,2.61-0.509,2.61c-0.115,0.276-0.342,0.276-1.254,0.131c-0.458-0.087-0.766-0.174-0.766-0.174
			c-1.487-0.515-0.95,1.09-0.95,1.09c-0.007-0.008,5.453,0,5.453,0c0.407-1.471-0.588-1.026-0.588-1.026
			c-0.987,0.506-0.906-0.036-0.906-0.036c0.297-1.639,1.058-2.655,1.058-2.655c-12.68-7.636-4.273-9.945-4.273-9.945
			s-5.767,2.858,7.125,9.872c3.22,1.956,3.323,2.035,4.374,2.556c0.744,0.48,0.906,0.194,0.906,0.194
			c0.117-0.25-0.238-0.591-0.238-0.591l-3.006-3.731c3.954,2.522,5.71,3.836,5.71,3.836c1.857,0.794,4.615-1.729,1.03-3.259
			C174.828,17.506,174.008,11.714,174.008,11.714"/>
		<path d="M159.146,15.028c0,0-2.608-0.718-4.521,2.039c0,0-1.538,1.946-1.79,6.045h-1.588c0,0,0.105-2.617,0.805-5.122
			c0,0,0.397-1.572,0.89-4.215c0,0,0.464-2.267-0.241-3.979c0,0-0.895-2.65-2.55-2.538c-1.655-0.112-2.548,2.538-2.548,2.538
			c-0.71,1.712-0.237,3.979-0.237,3.979c0.495,2.643,0.889,4.215,0.889,4.215c0.694,2.505,0.812,5.122,0.812,5.122h-1.592
			c-0.254-4.099-1.797-6.045-1.797-6.045c-1.908-2.757-4.525-2.039-4.525-2.039c-3.311,0.75-3.233,4.019-3.233,4.019
			c-0.05,2.847,1.673,3.814,1.673,3.814c1.516,0.945,3.109,0.648,3.109,0.648c-0.514-0.542-0.816-1.006-0.816-1.006
			c-0.609-1.342,0.549-1.952,0.549-1.952c1.132-0.61,2.116,0.397,2.116,0.397c0.886,0.875,1.128,2.164,1.128,2.164h-1.215
			c-1.088,0-1.073,1.281-1.073,1.281c-0.015,1.281,1.073,1.286,1.073,1.286h1.191c-0.14,1.27-1.314,1.171-1.314,1.171
			c-1.168-0.016-1.949-1.573-1.949-1.573c-0.818,0.908-0.534,2.061-0.545,2.066c0.414,2.069,2.518,2.01,2.518,2.01
			c3.03,0.015,3.157-3.674,3.157-3.674h1.546c-0.33,4.118-2.287,4.825-2.287,4.825c0.839,2.077,3.372,1.949,3.372,1.949
			s2.533,0.128,3.373-1.949c0,0-1.958-0.707-2.276-4.825h1.537c0,0,0.132,3.689,3.16,3.674c0,0,2.103,0.06,2.506-2.01
			c0-0.006,0.274-1.158-0.543-2.066c0,0-0.777,1.558-1.938,1.573c0,0-1.176,0.099-1.316-1.171h1.186c0,0,1.097-0.005,1.079-1.286
			c0,0,0.018-1.281-1.079-1.281h-1.213c0,0,0.24-1.289,1.132-2.164c0,0,0.976-1.007,2.117-0.397c0,0,1.151,0.61,0.543,1.952
			c0,0-0.303,0.464-0.823,1.006c0,0,1.6,0.297,3.119-0.648c0,0,1.725-0.967,1.669-3.814
			C162.381,19.046,162.465,15.778,159.146,15.028z"/>
	</g>
	<g>
		<path d="M184.327,48.445h1.15c1.655,0,1.946,0.14,2.001,1.689h1.491v-4.894h-1.491c-0.055,1.599-0.371,1.688-2.029,1.688h-1.122
			v-5.671h2.609c1.856,0,2.176,0.285,2.867,2.604h1.627l-0.316-4.286h-12.422v1.196c1.723,0.028,2.064,0.425,2.064,2.058v9.251
			c0,1.636-0.342,2.035-2.064,2.064v1.143h8.071v-1.143c-1.892-0.029-2.437-0.348-2.437-2.064V48.445z"/>
		<path d="M169.822,39.251c-4.522,0-7.525,2.808-7.525,8.306c0,5.156,2.825,8.07,7.525,8.07c4.689,0,7.53-2.914,7.53-8.07
			C177.353,42.059,174.372,39.251,169.822,39.251z M169.822,54.061c-2.38,0-3.636-1.864-3.636-6.703
			c0-4.214,0.996-6.328,3.636-6.328c2.67,0,3.722,2.114,3.722,6.268C173.544,52.196,172.342,54.061,169.822,54.061z"/>
	</g>
	<g>
		<path d="M146.733,49.59v2.491c0,1.636-0.341,2.035-2.146,2.064v1.143h7.871v-1.143c-1.807-0.029-2.147-0.429-2.147-2.064V49.59
			l3.831-7.072c0.719-1.292,1.034-1.633,2.147-1.776v-1.165h-5.441v1.165c1.124,0.031,1.521,0.288,1.521,0.719
			c0,0.224-0.111,0.515-0.287,0.856l-2.604,5.268h-0.146l-2.771-5.24c-0.14-0.257-0.255-0.545-0.255-0.831
			c0-0.483,0.515-0.74,1.628-0.771v-1.165h-7.239v1.165c1.06,0.144,1.397,0.518,2.145,1.837L146.733,49.59z"/>
		<path d="M130.133,52.081c0,1.636-0.347,2.035-2.153,2.064v1.143h7.903v-1.143c-1.803-0.029-2.15-0.429-2.15-2.064V41.197h1.171
			c1.72,0,2.095,0.777,2.609,3.238h1.689l-0.257-4.859h-14.255l-0.147,4.859h1.689c0.401-2.405,0.664-3.238,2.583-3.238h1.317
			V52.081z"/>
		<path d="M120.965,42.83c0-1.633,0.341-2.035,2.029-2.058v-1.196h-7.663v1.196c1.714,0.022,2.057,0.425,2.057,2.058v9.251
			c0,1.636-0.342,2.035-2.057,2.064v1.143h7.663v-1.143c-1.688-0.029-2.029-0.429-2.029-2.064V42.83z"/>
		<path d="M106.764,55.627c4.04,0,6.414-1.795,6.414-5.062c0-2.551-1.655-4.038-4.522-4.701l-2.123-0.483
			c-1.599-0.375-2.115-1.061-2.115-2.287c0-1.435,0.94-2.266,2.602-2.266c1.749,0,2.636,0.886,2.896,2.606h2.401v-3.093
			c-0.83-0.459-2.575-1.091-5.068-1.091c-3.235,0-5.895,1.634-5.895,4.899c0,2.606,1.572,3.979,4.032,4.524l2.153,0.484
			c1.602,0.377,2.489,0.947,2.489,2.497c0,1.772-1.314,2.517-3.036,2.517c-2.176,0-3.064-0.915-3.29-3.064h-2.434v3.209
			C102.068,54.802,103.639,55.627,106.764,55.627"/>
		<path d="M97.861,52.741c-0.597-1.029-0.945-1.72-1.344-2.321c-0.803-1.203-1.976-1.862-3.232-2.119v-0.115
			c2.833-0.087,4.977-1.145,4.977-4.119c0-3.579-2.605-4.49-6.241-4.49h-7.895v1.196c1.715,0.028,2.057,0.425,2.057,2.058v9.251
			c0,1.636-0.342,2.035-2.057,2.064v1.143h7.873v-1.143c-1.689-0.029-2.239-0.348-2.239-2.064v-3.552
			c1.603,0.028,2.261,0.657,3.351,2.637c0.601,1.145,1.263,2.489,1.974,4.122h4.923v-1.172
			C98.719,54.083,98.406,53.717,97.861,52.741z M91.446,46.986H89.76v-5.728h1.345c2.637,0,3.499,0.8,3.499,2.808
			C94.604,46.298,93.774,46.986,91.446,46.986z"/>
		<path d="M68.92,55.288h13.017v-4.837h-1.683c-0.228,2.776-0.891,3.204-2.924,3.204h-2.777v-5.641h0.945
			c1.661,0,1.942,0.14,2.005,1.6h1.518v-4.687h-1.518c-0.063,1.481-0.371,1.571-2.03,1.571h-0.92v-5.24h2.606
			c1.862,0,2.182,0.285,2.867,2.604h1.626l-0.314-4.286H68.92v1.196c1.714,0.028,2.055,0.425,2.055,2.058v9.251
			c0,1.636-0.341,2.035-2.055,2.064V55.288z"/>
		<path d="M60.928,55.428l4.522-12.796c0.517-1.46,0.894-1.747,2.034-1.891v-1.165h-5.728v1.165
			c1.291,0.031,1.749,0.316,1.749,0.886c0,0.233-0.057,0.487-0.167,0.807l-2.353,7.211c-0.375,1.088-0.571,2.235-0.657,2.666h-0.111
			c-0.09-0.459-0.319-1.689-0.663-2.696l-2.406-7.181c-0.341-1.091-0.253-1.639,1.545-1.692v-1.165h-7.15v1.165
			c1.051,0.144,1.399,0.456,1.946,1.891l4.693,12.796H60.928z"/>
		<path d="M48.044,42.83c0-1.633,0.338-2.035,2.033-2.058v-1.196h-7.671v1.196c1.716,0.022,2.065,0.425,2.065,2.058v9.251
			c0,1.636-0.35,2.035-2.065,2.064v1.143h7.671v-1.143c-1.695-0.029-2.033-0.429-2.033-2.064V42.83z"/>
		<path d="M26.059,52.081c0,1.636-0.348,2.035-2.062,2.064v1.143h6.183v-1.143c-1.691-0.029-2.033-0.429-2.033-2.064v-4.184
			c0-2.033-0.175-4.147-0.288-4.891h0.14c0.237,0.539,0.891,2.061,2.384,4.211l5.52,8.07h2.66V42.83c0-1.633,0.349-2.035,2.04-2.058
			v-1.196H34.42v1.196c1.718,0.022,2.056,0.425,2.056,2.058v2.839c0,2.346,0.202,4.32,0.292,5.126h-0.175
			c-0.287-0.806-1-2.207-1.89-3.552l-5.07-7.667h-5.636v1.196c1.714,0.022,2.062,0.425,2.062,2.058V52.081z"/>
		<path d="M13.956,55.627c4.755,0,6.985-2.26,6.985-6.781V38.792c0-1.633,0.369-2.086,1.973-2.113v-1.203H16.59v1.203
			c1.777,0.027,2.204,0.48,2.204,2.113v10.025c0,3.471-1.348,4.754-4.148,4.754c-3.128,0-4.248-1.375-4.248-4.896v-9.883
			c0-1.633,0.401-2.086,2.213-2.113v-1.203H4.672v1.203c1.636,0.027,2.043,0.48,2.043,2.113v10.224
			C6.715,53.513,9.002,55.627,13.956,55.627"/>
	</g>
</g>
<rect x="-15.479" y="-12.982" fill="none" width="323.682" height="88.422"/>
</svg>
