<svg fill="#5E6C38" xmlns="http://www.w3.org/2000/svg" xmlns:xlink="http://www.w3.org/1999/xlink" version="1.1" x="0px" y="0px" viewBox="0 0 24 24" enable-background="new 0 0 24 24" xml:space="preserve"><path d="M10.62,0.242c0,0-0.001-0.001-0.001-0.001c-0.014-0.011-0.024-0.027-0.039-0.038c-0.019-0.015-0.042-0.02-0.063-0.031  c-0.013-0.007-0.025-0.014-0.039-0.019c-0.041-0.016-0.082-0.023-0.124-0.025c-0.006,0-0.01-0.003-0.016-0.003  c-0.003,0-0.005,0.002-0.008,0.002c-0.047,0.001-0.091,0.01-0.135,0.027c-0.006,0.002-0.012,0.003-0.017,0.006  c-0.039,0.017-0.073,0.042-0.105,0.071c-0.007,0.007-0.016,0.012-0.022,0.019c-0.009,0.01-0.022,0.015-0.03,0.026  c-0.016,0.021-0.023,0.046-0.034,0.069C9.977,0.357,9.97,0.369,9.965,0.383C9.952,0.418,9.946,0.453,9.943,0.49  C9.942,0.502,9.937,0.512,9.937,0.523V2.39L8.938,4.12H7.063L6.063,2.39V0.522c0-0.019-0.008-0.035-0.011-0.053  C6.049,0.444,6.046,0.42,6.038,0.395C6.029,0.368,6.015,0.344,6,0.319c-0.008-0.014-0.011-0.03-0.021-0.043  C5.974,0.27,5.966,0.267,5.961,0.26C5.943,0.24,5.922,0.224,5.9,0.208C5.879,0.193,5.86,0.177,5.837,0.165  C5.816,0.155,5.794,0.15,5.771,0.144C5.743,0.136,5.716,0.128,5.686,0.127c-0.008,0-0.015-0.005-0.023-0.005  c-0.016,0-0.029,0.007-0.044,0.009C5.59,0.134,5.561,0.139,5.533,0.148C5.51,0.156,5.49,0.167,5.47,0.179  C5.453,0.189,5.434,0.192,5.418,0.205c-0.012,0.009-0.02,0.022-0.032,0.031C5.383,0.239,5.381,0.241,5.378,0.243  C4.361,1.051,3.774,2.25,3.774,3.55c0,1.423,0.712,2.677,1.792,3.443v14.453c0,1.342,1.092,2.434,2.434,2.434  s2.434-1.092,2.434-2.434V6.994c1.081-0.766,1.792-2.021,1.792-3.443C12.226,2.25,11.639,1.049,10.62,0.242z M6.882,9.604  c0-0.616,0.501-1.118,1.118-1.118s1.118,0.501,1.118,1.118v8.972c0,0.616-0.501,1.118-1.118,1.118s-1.118-0.502-1.118-1.118V9.604z   M8,22.751c-0.748,0-1.357-0.609-1.357-1.357S7.252,20.036,8,20.036s1.357,0.609,1.357,1.357S8.748,22.751,8,22.751z"></path><path d="M20.015,8.426c0.238-0.36,0.383-0.778,0.383-1.228V2.066v0V1.683c0-0.728-0.592-1.319-1.319-1.319H17.24  c-0.728,0-1.32,0.592-1.32,1.319v0.383v0v5.132c0,0.45,0.144,0.869,0.383,1.228c-0.323,0.124-0.555,0.432-0.555,0.798v0.789  c0,0.474,0.386,0.859,0.86,0.859h0.557v8.239l-0.771,1.554c-0.045,0.09-0.054,0.194-0.025,0.29l0.703,2.394  c0.05,0.171,0.206,0.288,0.384,0.288h1.406c0.178,0,0.334-0.117,0.384-0.288l0.703-2.394c0.028-0.096,0.02-0.2-0.025-0.29  l-0.771-1.554v-8.239h0.557c0.475,0,0.86-0.385,0.86-0.859V9.224C20.57,8.858,20.338,8.55,20.015,8.426z"></path></svg>