<svg width="1000" height="378" viewBox="0 0 1000 378" fill="none" xmlns="http://www.w3.org/2000/svg">
<path d="M319.573 200.798L263.24 373.929H226.805L196.572 282.195L166.338 373.929H129.903L73.0542 200.798H129.387L152.901 290.723L179.775 200.798H212.851L240.242 290.723L263.24 200.798H319.573Z" fill="white"/>
<path d="M596.743 200.798C605.529 200.798 614.056 202.003 622.325 204.415C630.767 206.827 638.347 210.531 645.065 215.527C651.784 220.522 657.124 226.81 661.086 234.39C665.221 241.97 667.288 250.842 667.288 261.006C667.288 273.926 663.584 284.607 656.177 293.048C648.941 301.489 639.639 307.26 628.269 310.361L676.074 373.929H617.157L570.903 305.193V373.929H522.581V200.798H596.743ZM570.903 246.018V278.319C573.831 279.353 576.932 280.214 580.205 280.903C583.651 281.592 587.269 281.937 591.058 281.937C598.638 281.937 604.926 280.472 609.922 277.544C615.09 274.443 617.674 269.792 617.674 263.59C617.674 256.527 615.09 251.876 609.922 249.636C604.926 247.224 598.638 246.018 591.058 246.018H570.903Z" fill="white"/>
<path d="M743.59 200.798V264.365L796.563 200.798H854.704L792.17 271.859L862.456 373.929H800.956L759.353 308.811L743.59 326.641V373.929H695.268V200.798H743.59Z" fill="white"/>
<path d="M935.399 196.921C945.563 196.921 955.554 198.213 965.374 200.798C975.365 203.209 983.376 206.482 989.405 210.617V257.388C981.998 253.082 974.676 249.378 967.441 246.277C960.206 243.004 951.678 241.367 941.859 241.367C936.174 241.367 931.264 242.228 927.13 243.951C922.995 245.674 920.928 248.516 920.928 252.479C920.928 256.785 923.426 260.058 928.422 262.298C933.418 264.365 939.533 266.777 946.769 269.533L965.374 276.51C977.949 281.334 986.821 287.88 991.99 296.149C997.33 304.418 1000 312.687 1000 320.956C1000 331.981 996.813 341.801 990.439 350.414C984.065 358.855 975.452 365.574 964.599 370.57C953.746 375.393 941.6 377.805 928.163 377.805C917.827 377.805 907.577 375.996 897.413 372.379C887.249 368.761 878.377 364.282 870.798 358.942V312.17C879.066 318.372 887.938 323.454 897.413 327.416C907.06 331.378 916.707 333.359 926.355 333.359C932.384 333.359 937.208 332.67 940.825 331.292C944.615 329.742 946.51 327.158 946.51 323.54C946.51 320.956 945.132 318.716 942.376 316.821C939.619 314.927 935.916 313.29 931.264 311.912L906.716 304.16C897.069 301.059 889.575 296.838 884.235 291.498C878.894 286.157 875.19 280.214 873.123 273.668C871.056 266.949 870.022 260.145 870.022 253.254C870.022 241.023 873.123 230.773 879.325 222.504C885.527 214.062 893.623 207.688 903.615 203.382C913.607 199.075 924.201 196.921 935.399 196.921Z" fill="white"/>
<path d="M414.501 196.921C426.216 196.921 437.413 198.989 448.094 203.123C458.947 207.085 468.594 212.943 477.035 220.695C485.476 228.447 492.109 237.922 496.932 249.119C501.928 260.317 504.426 273.065 504.426 287.363C504.426 301.662 501.928 314.41 496.932 325.607C492.109 336.805 485.476 346.28 477.035 354.032C468.594 361.784 458.947 367.727 448.094 371.862C437.413 375.824 426.216 377.805 414.501 377.805C402.787 377.805 391.503 375.824 380.65 371.862C369.969 367.727 360.408 361.784 351.967 354.032C343.526 346.28 336.807 336.805 331.812 325.607C326.988 314.41 324.576 301.662 324.576 287.363C324.576 273.065 326.988 260.317 331.812 249.119C336.807 237.922 343.526 228.447 351.967 220.695C360.408 212.943 369.969 207.085 380.65 203.123C391.503 198.989 402.787 196.921 414.501 196.921ZM414.501 242.142C406.749 242.142 399.858 244.123 393.829 248.086C387.799 252.048 382.976 257.474 379.358 264.365C375.913 271.084 374.19 278.75 374.19 287.363C374.19 295.977 375.913 303.729 379.358 310.62C382.976 317.338 387.799 322.679 393.829 326.641C399.858 330.603 406.749 332.584 414.501 332.584C422.253 332.584 429.144 330.603 435.174 326.641C441.375 322.679 446.199 317.338 449.644 310.62C453.09 303.729 454.812 295.977 454.812 287.363C454.812 278.75 453.09 271.084 449.644 264.365C446.199 257.474 441.375 252.048 435.174 248.086C429.144 244.123 422.253 242.142 414.501 242.142Z" fill="white"/>
<path d="M459.833 135.629C459.833 160.604 439.587 180.85 414.612 180.85C389.637 180.85 369.391 160.604 369.391 135.629C369.391 110.654 389.637 90.4077 414.612 90.4077C439.587 90.4077 459.833 110.654 459.833 135.629Z" fill="#FFC224"/>
<path d="M89.925 0C101.639 0 112.837 2.06724 123.518 6.20173C134.371 10.1639 144.018 16.0211 152.459 23.7733C160.9 31.5254 167.533 41.0003 172.356 52.1979C177.352 63.3954 179.85 76.1434 179.85 90.4418C179.85 104.74 177.352 117.488 172.356 128.686C167.533 139.883 160.9 149.358 152.459 157.11C144.018 164.863 134.371 170.806 123.518 174.94C112.837 178.903 101.639 180.884 89.925 180.884C78.2107 180.884 66.927 178.903 56.0739 174.94C45.3932 170.806 35.8322 164.863 27.391 157.11C18.9497 149.358 12.2312 139.883 7.23535 128.686C2.41178 117.488 0 104.74 0 90.4418C0 76.1434 2.41178 63.3954 7.23535 52.1979C12.2312 41.0003 18.9497 31.5254 27.391 23.7733C35.8322 16.0211 45.3932 10.1639 56.0739 6.20173C66.927 2.06724 78.2107 0 89.925 0ZM89.925 45.2209C82.1729 45.2209 75.2821 47.202 69.2526 51.1642C63.2231 55.1264 58.3996 60.553 54.7819 67.4438C51.3365 74.1623 49.6138 81.8283 49.6138 90.4418C49.6138 99.0553 51.3365 106.807 54.7819 113.698C58.3996 120.417 63.2231 125.757 69.2526 129.719C75.2821 133.682 82.1729 135.663 89.925 135.663C97.6772 135.663 104.568 133.682 110.597 129.719C116.799 125.757 121.623 120.417 125.068 113.698C128.514 106.807 130.236 99.0553 130.236 90.4418C130.236 81.8283 128.514 74.1623 125.068 67.4438C121.623 60.553 116.799 55.1264 110.597 51.1642C104.568 47.202 97.6772 45.2209 89.925 45.2209Z" fill="white"/>
<path d="M280.599 1.29203L360.705 177.008H304.373L295.845 153.751H241.063L232.536 177.008H176.204L256.309 1.29203H280.599ZM268.454 79.3304L255.276 114.99H281.633L268.454 79.3304Z" fill="white"/>
</svg>
